<svg t="1648189546252" class="icon" viewBox="0 0 1100 1024" version="1.1" xmlns="http://www.w3.org/2000/svg" p-id="2550" width="32" height="32"><path d="M5.84828 865.753503c8.922967 11.66621 25.639914 13.924186 37.355641 5.001219 79.118297-60.42067 151.254694-85.793191 214.527544-75.295583 33.988484 5.625134 57.62791 20.04449 82.643909 35.31554 27.40272 16.72685 58.459795 35.672062 103.510381 42.089468 62.757873 9.002194 100.281872-18.796661 133.359242-43.267973 27.363106-20.252462 50.655913-37.771584 89.388127-36.880278 39.940429 0.881403 64.857395 18.390622 93.706012 38.672794 30.670843 21.549808 65.431792 45.971603 119.326118 47.922573 2.277783 0.079227 4.545663 0.118841 6.823445 0.118841 65.501116 0 131.358754-33.97858 195.829917-101.06424 10.200506-10.616449 9.863791-27.481947-0.742756-37.692357-10.596643-10.190603-27.481947-9.843984-37.692356 0.742755-14.706555 15.30076-29.32398 28.42277-43.852274 39.613617l84.723623-213.259908a36.040469 36.040469 0 0 0-3.684066-33.552733 35.994913 35.994913 0 0 0-29.81915-15.786027H893.777605C865.562806 243.661259 665.51404 130.594093 604.172354 102.290163c-2.416431-1.109181-4.931895-1.792516-7.457264-2.366913V33.045561c0-11.220557-5.605327-21.569615-15.003657-27.689919-9.36862-6.100497-21.064541-7.04132-31.255144-2.555078-53.815099 23.688943-320.295901 158.771377-353.799118 515.630647H38.886037c-11.408722 0-22.262853 5.486486-29.026878 14.666942-6.754122 9.200263-8.774416 21.183382-5.377548 32.08703l68.937597 221.578767C52.85974 798.519291 32.013074 812.24541 10.849499 828.407765c-11.705824 8.922967-13.943993 25.639914-5.001219 37.345738z m598.987602-703.458613c69.551608 37.999362 210.219563 140.242108 235.205851 353.898152h-235.205851V162.29489z m-61.420914-96.677033v450.783156H250.234588C279.281273 237.055689 463.336041 108.73728 543.414968 65.617857zM62.337298 571.731333h963.46259l-92.339342 232.452706c-1.851937 4.664503-2.198556 9.517172-1.435994 14.132157-17.063566 5.55581-33.91916 8.37828-50.438038 7.714752-38.098396-1.36667-62.421157-18.469849-90.596342-38.266754-31.413598-22.084592-67.02624-47.100591-123.178543-48.348419-56.419694-1.554834-91.477745 24.540636-122.267429 47.318465-29.630986 21.896427-53.052537 39.167964-94.151664 33.354666-34.176648-4.862572-56.914864-18.747144-83.248017-34.82037-26.947163-16.449555-57.489262-35.097665-101.717865-42.406377-45.714114-7.566201-94.102148-0.485267-144.559992 20.222752L62.337298 571.731333z" fill="#666666" p-id="2551"></path><path d="M1043.8736 885.996061c-55.76607 58.024046-110.531895 86.644884-162.287086 84.614687-38.098396-1.36667-62.421157-18.469849-90.596342-38.266755-31.413598-22.084592-67.02624-47.100591-123.178543-48.348419-56.419694-1.465704-91.477745 24.540636-122.267429 47.308562-29.630986 21.90633-53.052537 39.148157-94.151664 33.364569-34.176648-4.862572-56.914864-18.747144-83.248017-34.830273-26.947163-16.449555-57.489262-35.097665-101.717865-42.406377-78.276507-12.904136-164.317284 15.835543-255.587058 85.525799-11.69592 8.922967-13.93409 25.65972-5.001219 37.355641 8.922967 11.676114 25.639914 13.943993 37.355641 5.001219 79.09849-60.42067 151.24479-85.743674 214.527543-75.295582 33.988484 5.625134 57.62791 20.04449 82.643909 35.325443 27.40272 16.716946 58.449892 35.672062 103.510382 42.089468 62.787583 8.942774 100.271968-18.796661 133.359242-43.267973 27.363106-20.252462 50.655913-37.850811 89.388127-36.880278 39.940429 0.881403 64.857395 18.390622 93.706011 38.672794 30.670843 21.549808 65.431792 45.971603 119.326118 47.922573 2.277783 0.079227 4.545663 0.118841 6.823446 0.118841 65.501116 0 131.358754-33.97858 195.829916-101.064241 10.200506-10.616449 9.863791-27.481947-0.742755-37.692356-10.596643-10.190603-27.49185-9.853887-37.692357 0.752658z" fill="#666666" p-id="2552"></path></svg>
